HIERARCHY
ROOT joint_Root
{
  OFFSET 0 0 0
  CHANNELS 6 Xposition Yposition Zposition Zrotation Xrotation Yrotation
  JOINT Hips
  {
    OFFSET 0 93.9241 -3
    CHANNELS 6 Xposition Yposition Zposition Zrotation Xrotation Yrotation
    JOINT Spine
    {
      OFFSET 15.7357 0 0
      CHANNELS 6 Xposition Yposition Zposition Zrotation Xrotation Yrotation
      JOINT Chest
      {
        OFFSET 8.98455 -0.406207 0
        CHANNELS 6 Xposition Yposition Zposition Zrotation Xrotation Yrotation
        JOINT Neck
        {
          OFFSET 16.3773 0 0
          CHANNELS 6 Xposition Yposition Zposition Zrotation Xrotation Yrotation
          JOINT Head
          {
            OFFSET 6.45672 0 0
            CHANNELS 6 Xposition Yposition Zposition Zrotation Xrotation Yrotation
            End Site
            {
              OFFSET 0 0 0
            }
          }
        }
        JOINT Shoulder_L
        {
          OFFSET 12.9942 -0.242716 4.98039
          CHANNELS 6 Xposition Yposition Zposition Zrotation Xrotation Yrotation
          JOINT UpperArm_L
          {
            OFFSET 5.34809 0 0
            CHANNELS 6 Xposition Yposition Zposition Zrotation Xrotation Yrotation
            JOINT LowerArm_L
            {
              OFFSET 24.3286 1.87007e-05 0
              CHANNELS 6 Xposition Yposition Zposition Zrotation Xrotation Yrotation
              JOINT Hand_L
              {
                OFFSET 22.2916 0 0
                CHANNELS 6 Xposition Yposition Zposition Zrotation Xrotation Yrotation
                End Site
                {
                  OFFSET 0 0 0
                }
              }
            }
          }
        }
        JOINT Shoulder_R
        {
          OFFSET 12.9945 -0.242716 -4.98039
          CHANNELS 6 Xposition Yposition Zposition Zrotation Xrotation Yrotation
          JOINT UpperArm_R
          {
            OFFSET -5.34813 0 0
            CHANNELS 6 Xposition Yposition Zposition Zrotation Xrotation Yrotation
            JOINT LowerArm_R
            {
              OFFSET -24.3289 0.000322201 0
              CHANNELS 6 Xposition Yposition Zposition Zrotation Xrotation Yrotation
              JOINT Hand_R
              {
                OFFSET -22.2915 -0.000108084 0
                CHANNELS 6 Xposition Yposition Zposition Zrotation Xrotation Yrotation
                End Site
                {
                  OFFSET 0 0 0
                }
              }
            }
          }
        }
      }
    }
    JOINT UpperLeg_L
    {
      OFFSET -2.19248 -6.46944 0
      CHANNELS 6 Xposition Yposition Zposition Zrotation Xrotation Yrotation
      JOINT LowerLeg_L
      {
        OFFSET 39.0811 0 -1.23785e-05
        CHANNELS 6 Xposition Yposition Zposition Zrotation Xrotation Yrotation
        JOINT Foot_L
        {
          OFFSET 40.9854 0 -1.26872e-05
          CHANNELS 6 Xposition Yposition Zposition Zrotation Xrotation Yrotation
          JOINT Toes_L
          {
            OFFSET 11.7543 0 0
            CHANNELS 6 Xposition Yposition Zposition Zrotation Xrotation Yrotation
            End Site
            {
              OFFSET 0 0 0
            }
          }
        }
      }
    }
    JOINT UpperLeg_R
    {
      OFFSET -2.19251 6.46944 0
      CHANNELS 6 Xposition Yposition Zposition Zrotation Xrotation Yrotation
      JOINT LowerLeg_R
      {
        OFFSET -39.0811 -0.00228153 -0.0401928
        CHANNELS 6 Xposition Yposition Zposition Zrotation Xrotation Yrotation
        JOINT Foot_R
        {
          OFFSET -40.9854 0 0
          CHANNELS 6 Xposition Yposition Zposition Zrotation Xrotation Yrotation
          JOINT Toes_R
          {
            OFFSET -11.7543 0 0
            CHANNELS 6 Xposition Yposition Zposition Zrotation Xrotation Yrotation
            End Site
            {
              OFFSET 0 0 0
            }
          }
        }
      }
    }
  }
}
MOTION
Frames:	7
Frame Time:	0.0333333
0 0 0 0 0 -0 -153.811 91.2752 1.13817 81.6472 69.658 13.1383 15.7357 5.1072e-06 -5.51765e-07 76.3395 82.369 -72.9697 8.98455 -0.406207 -4.3199e-07 7.19048 -3.60837 6.96119 16.3773 -1.3905e-06 -6.99897e-07 -2.02608 -17.5996 -4.31293 6.45672 -1.25837e-06 -1.02172e-07 2.66361 -27.9402 -2.1357 12.9942 -0.242716 4.98039 -89.9738 -0.333613 -100.519 5.34809 -7.22636e-06 -6.2814e-07 -79.7708 -9.58682 9.99652 24.3286 1.87007e-05 4.90208e-06 3.6767 11.1369 -18.3997 22.2916 -9.88446e-07 4.63217e-06 13.8034 5.41161 -3.31836 12.9945 -0.242716 -4.98039 89.4171 4.08763 -96.8773 -5.34813 -1.25947e-06 -3.79883e-06 -64.9017 -1.93226 1.06044 -24.3289 0.000322201 -8.65921e-06 -5.16384 -9.10738 -29.7188 -22.2915 -0.000108084 -4.47941e-06 26.8076 5.67913 -22.9784 -2.19248 -6.46944 -1.22534e-07 -175.176 -9.31132 -14.9458 39.0811 -6.73843e-06 -1.23785e-05 0.12974 -0.058146 66.0691 40.9854 -6.48686e-06 -1.26872e-05 -2.97972 -3.85323 -42.4137 11.7543 -2.30145e-07 3.05095e-06 0.39003 -0.467618 -21.0151 -2.19251 6.46944 -1.45247e-06 -174.058 -2.42987 176.203 -39.0811 -0.00228153 -0.0401928 0.0348056 -0.00471126 26.1756 -40.9854 7.72618e-06 5.99936e-06 -1.00693 -15.3692 -67.7499 -11.7543 -5.6619e-06 -5.58687e-06 -0.0984454 0.0727324 -16.5722 
0 0 0 0 0 -0 -151.331 91.2871 1.33722 83.8091 71.8797 11.7521 15.7357 5.1072e-06 -5.51765e-07 80.6171 82.243 -77.5789 8.98455 -0.406207 -4.3199e-07 7.62038 -2.52298 6.23912 16.3773 -1.3905e-06 -6.99897e-07 -1.70876 -18.3711 -4.44099 6.45672 -1.25837e-06 -1.02172e-07 2.11405 -29.8194 -2.23815 12.9942 -0.242716 4.98039 -89.9291 -0.778152 -99.7912 5.34809 -7.22636e-06 -6.2814e-07 -78.4866 -11.304 14.696 24.3286 1.87007e-05 4.90208e-06 2.97731 10.59 -15.8007 22.2916 -9.88446e-07 4.63217e-06 13.4304 5.41369 -3.38796 12.9945 -0.242716 -4.98039 89.4612 3.9505 -97.2282 -5.34813 -1.25947e-06 -3.79883e-06 -62.0557 -4.70941 -3.39131 -24.3289 0.000322201 -8.65921e-06 -5.6998 -8.69786 -33.4189 -22.2915 -0.000108084 -4.47941e-06 28.22 5.67768 -23.384 -2.19248 -6.46944 -1.22533e-07 -176.446 -6.42284 -18.4985 39.0811 -6.73843e-06 -1.23785e-05 0.0351086 -0.0188006 64.6511 40.9854 -6.48686e-06 -1.26872e-05 -0.736655 -6.79317 -46.5715 11.7543 -2.30145e-07 3.05095e-06 0.396124 -0.475586 -21.088 -2.19251 6.46944 -1.45247e-06 -175.526 -0.989434 179.074 -39.0811 -0.00228153 -0.0401928 -0.00244835 0.0692124 25.3911 -40.9854 7.72618e-06 5.99936e-06 -1.96537 -15.7818 -69.4454 -11.7543 -5.6619e-06 -5.58687e-06 -0.107465 0.077807 -16.5723 
0 0 0 0 0 -0 -149.006 91.3762 1.42027 86.3971 73.1948 9.32093 15.7357 5.1072e-06 -5.51764e-07 84.9463 82.191 -82.1824 8.98455 -0.406207 -4.3199e-07 7.83207 -1.36842 5.61607 16.3773 -1.3905e-06 -6.99897e-07 -1.36759 -18.7987 -4.35052 6.45672 -1.25837e-06 -1.02172e-07 1.51684 -31.1564 -2.49545 12.9942 -0.242716 4.98039 -89.8309 -1.69457 -99.3047 5.34809 -7.22636e-06 -6.2814e-07 -77.5959 -11.4265 19.1197 24.3286 1.87007e-05 4.90208e-06 2.32531 10.1789 -12.9396 22.2916 -9.88446e-07 4.63217e-06 12.7618 5.42563 -3.78959 12.9945 -0.242716 -4.98039 89.5514 3.47363 -97.6368 -5.34813 -1.25947e-06 -3.79883e-06 -60.3299 -8.64102 -7.98526 -24.3289 0.000322201 -8.65921e-06 -6.56175 -8.70858 -37.2219 -22.2915 -0.000108084 -4.47941e-06 29.2589 5.6783 -23.2043 -2.19248 -6.46944 -1.22533e-07 -177.115 -4.98314 -21.1016 39.0811 -6.73843e-06 -1.23785e-05 0.013071 -0.0115505 59.0555 40.9854 -6.48686e-06 -1.26872e-05 -0.0474932 -7.7403 -49.5501 11.7543 -2.30145e-07 3.05095e-06 0.403645 -0.485377 -21.1781 -2.19251 6.46944 -1.45247e-06 -176.903 -0.168248 -178.325 -39.0811 -0.00228153 -0.0401928 -0.0318727 0.132844 23.6472 -40.9854 7.72618e-06 5.99936e-06 -2.70692 -15.9908 -70.3919 -11.7543 -5.6619e-06 -5.58687e-06 -0.112467 0.0803891 -16.5724 
0 0 0 0 0 -0 -146.801 91.5166 1.38635 88.5416 73.5789 6.55365 15.7357 5.1072e-06 -5.51765e-07 89.1321 82.2596 -86.5735 8.98455 -0.406207 -4.3199e-07 7.7235 -0.234377 5.12796 16.3773 -1.3905e-06 -6.99897e-07 -1.3418 -18.7638 -4.16598 6.45672 -1.25837e-06 -1.02172e-07 1.35084 -32.0324 -2.57933 12.9942 -0.242716 4.98039 -89.6691 -2.98469 -98.6726 5.34809 -7.22636e-06 -6.2814e-07 -77.0973 -11.2523 23.0951 24.3286 1.87007e-05 4.90208e-06 2.01563 11.1379 -10.3269 22.2916 -9.88446e-07 4.63217e-06 12.6537 5.4368 -4.17421 12.9945 -0.242716 -4.98039 89.6018 3.28732 -98.0888 -5.34813 -1.25947e-06 -3.79883e-06 -59.3428 -12.6904 -12.5124 -24.3289 0.000322201 -8.65921e-06 -6.60468 -7.54976 -41.3863 -22.2915 -0.000108084 -4.47941e-06 29.4491 5.6783 -23.187 -2.19248 -6.46944 -1.22534e-07 -177.436 -5.19262 -22.5533 39.0811 -6.73843e-06 -1.23785e-05 0.0119316 -0.0164113 48.9849 40.9854 -6.48686e-06 -1.26872e-05 0.932009 -8.05193 -50.2023 11.7543 -2.30145e-07 3.05095e-06 0.396657 -0.476254 -21.0944 -2.19251 6.46944 -1.45247e-06 -177.927 -0.426314 -176.153 -39.0811 -0.00228153 -0.0401928 -0.0427833 0.165993 20.9625 -40.9854 7.72618e-06 5.99936e-06 -3.31695 -16.3344 -70.6359 -11.7543 -5.6619e-06 -5.58687e-06 -0.13393 0.0955269 -16.5722 
0 0 0 0 0 -0 -144.55 91.5929 1.27525 88.4277 73.2942 5.45193 15.7357 5.1072e-06 -5.51764e-07 92.3291 82.4746 -89.6859 8.98455 -0.406207 -4.3199e-07 7.26424 0.598244 5.24291 16.3773 -1.3905e-06 -6.99897e-07 -1.61078 -18.3945 -4.12769 6.45672 -1.25837e-06 -1.02172e-07 1.25185 -32.2345 -2.96262 12.9942 -0.242716 4.98039 -89.5655 -3.64138 -98.19 5.34809 -7.22636e-06 -6.2814e-07 -76.1231 -11.6444 28.1676 24.3286 1.87007e-05 4.90208e-06 2.27264 12.8003 -10.1545 22.2916 -9.88446e-07 4.63217e-06 12.7001 5.44781 -4.56218 12.9945 -0.242716 -4.98039 89.6522 3.11837 -98.634 -5.34813 -1.25947e-06 -3.79883e-06 -59.1889 -15.5731 -16.7444 -24.3289 0.000322201 -8.65921e-06 -7.2793 -7.0422 -46.168 -22.2915 -0.000108084 -4.47941e-06 30.7297 5.67888 -23.0346 -2.19248 -6.46944 -1.22533e-07 -177.248 -6.29696 -22.1718 39.0811 -6.73843e-06 -1.23785e-05 0.00919068 -0.024298 34.3543 40.9854 -6.48686e-06 -1.26872e-05 1.6864 -7.44079 -49.5097 11.7543 -2.30145e-07 3.05095e-06 0.384083 -0.459928 -20.944 -2.19251 6.46944 -1.45247e-06 -178.456 -0.80348 -173.978 -39.0811 -0.00228153 -0.0401928 -0.0429866 0.186492 17.2811 -40.9854 7.72618e-06 5.99936e-06 -3.70493 -16.0045 -70.2994 -11.7543 -5.6619e-06 -5.58687e-06 -0.0892836 0.0639069 -16.5728 
0 0 0 0 0 -0 -141.962 91.4178 1.17824 86.0183 72.3484 6.58121 15.7357 5.1072e-06 -5.51764e-07 94.9769 82.6883 -91.9866 8.98455 -0.406207 -4.3199e-07 6.77802 1.2393 5.9008 16.3773 -1.3905e-06 -6.99897e-07 -2.05806 -17.8693 -3.88389 6.45672 -1.25837e-06 -1.02172e-07 0.87433 -31.8834 -3.90859 12.9942 -0.242716 4.98039 -89.4827 -4.02713 -97.6747 5.34809 -7.22636e-06 -6.2814e-07 -75.6873 -11.3467 33.556 24.3286 1.87007e-05 4.90208e-06 2.70304 12.7866 -12.0429 22.2916 -9.88446e-07 4.63217e-06 12.8712 5.4533 -4.75713 12.9945 -0.242716 -4.98039 89.7394 2.47233 -98.9827 -5.34813 -1.25947e-06 -3.79883e-06 -59.686 -16.0551 -20.313 -24.3289 0.000322201 -8.65921e-06 -7.91433 -6.50549 -50.8179 -22.2915 -0.000108084 -4.47941e-06 31.1634 5.67991 -22.6909 -2.19248 -6.46944 -1.22534e-07 -176.382 -7.51103 -19.618 39.0811 -6.73843e-06 -1.23785e-05 0.000741895 -0.0226878 17.2502 40.9854 -6.48686e-06 -1.26872e-05 1.94198 -4.2117 -47.9797 11.7543 -2.30145e-07 3.05095e-06 0.38212 -0.457384 -20.9206 -2.19251 6.46944 -1.45247e-06 -177.933 -1.51247 -172.942 -39.0811 -0.00228153 -0.0401928 0.0504497 -0.13063 15.9745 -40.9854 7.72618e-06 5.99936e-06 -1.37203 -16.2373 -69.7884 -11.7543 -5.6619e-06 -5.58687e-06 -0.340705 -0.420805 -16.9955 
0 0 0 0 0 -0 -138.838 91.0878 0.818118 85.958 71.1669 5.67126 15.7357 5.1072e-06 -5.51764e-07 96.0089 82.8304 -92.888 8.98455 -0.406207 -4.3199e-07 6.46377 1.46162 6.15256 16.3773 -1.3905e-06 -6.99897e-07 -2.376 -17.2395 -3.7683 6.45672 -1.25837e-06 -1.02172e-07 0.680034 -31.2539 -4.28796 12.9942 -0.242716 4.98039 -89.3621 -4.64953 -97.1795 5.34809 -7.22636e-06 -6.2814e-07 -75.6948 -12.0644 37.8597 24.3286 1.87007e-05 4.90208e-06 2.97144 12.0144 -14.0023 22.2916 -9.88446e-07 4.63217e-06 12.833 5.4631 -5.1156 12.9945 -0.242716 -4.98039 89.7923 1.99928 -99.0683 -5.34813 -1.25947e-06 -3.79883e-06 -60.081 -14.9477 -23.1247 -24.3289 0.000322201 -8.65921e-06 -6.38782 -4.79864 -53.2276 -22.2915 -0.000108084 -4.47941e-06 31.9289 5.68049 -22.448 -2.19248 -6.46944 -1.22533e-07 -175.893 -7.29932 -18.1948 39.0811 -6.73843e-06 -1.23785e-05 0.00298199 -0.0458576 6.6546 40.9854 -6.48686e-06 -1.26872e-05 -1.60063 -1.32104 -46.5493 11.7543 -2.30145e-07 3.05095e-06 0.376113 -0.449639 -20.8498 -2.19251 6.46944 -1.45247e-06 -179.024 -2.08419 -173.087 -39.0811 -0.00228153 -0.0401928 0.0516679 -0.115468 17.6828 -40.9854 7.72618e-06 5.99936e-06 -3.17431 -15.0603 -69.8162 -11.7543 -5.6619e-06 -5.58687e-06 -1.01719 -1.48564 -19.0476 
